<svg width="35" height="35" viewBox="0 0 35 35" fill="none" xmlns="http://www.w3.org/2000/svg">
<path d="M12.0312 10.8438C12.0312 10.2915 12.479 9.84375 13.0312 9.84375H17.4896C19.9201 9.84375 21.8021 10.5104 23.1354 11.8438C24.4826 13.1772 25.1562 15.0554 25.1562 17.4785C25.1562 19.9159 24.4826 21.8084 23.1354 23.1562C21.8021 24.4896 19.9201 25.1562 17.4896 25.1562H13.0313C12.479 25.1562 12.0312 24.7085 12.0312 24.1563V10.8438Z" fill="url(#paint0_linear)"/>
<circle cx="18.0469" cy="16.9531" r="16.9531" fill="#3751FF"/>
<path d="M18.0469 7.65625C22.5773 7.65625 26.25 11.8186 26.25 16.9531C26.25 17.5414 26.2018 18.1168 26.1096 18.6748H22.7524H17.0625V15.2315H22.7524C22.1342 12.8389 20.2614 11.0995 18.0469 11.0995H16.4062V7.65625H18.0469Z" fill="#E7EAFF"/>
<path d="M18.0469 26.25C13.5164 26.25 9.84375 22.0876 9.84375 16.9531V13.8542H13.125V16.9531C13.125 20.186 15.3286 22.8067 18.0469 22.8067H20.3651H21.6562V25.304V26.25H18.0469Z" fill="#E7EAFF"/>
<defs>
<linearGradient id="paint0_linear" x1="12.0312" y1="9.84375" x2="25.1563" y2="25.1562" gradientUnits="userSpaceOnUse">
<stop stop-color="white" stop-opacity="0.7"/>
<stop offset="1" stop-color="white"/>
</linearGradient>
</defs>
</svg>
